<svg xmlns="http://www.w3.org/2000/svg" viewBox="0 0 1920 1080" preserveAspectRatio="xMidYMid slice">
  <defs>
    <!-- soft shadow -->
    <filter id="softShadow" x="-50%" y="-50%" width="200%" height="200%">
      <feDropShadow dx="0" dy="10" stdDeviation="15" flood-color="#000" flood-opacity="0.1"/>
    </filter>

    <!-- mesh pattern -->
    <pattern id="mesh" width="20" height="20" patternUnits="userSpaceOnUse">
      <rect width="10" height="10" fill="#f472b6" opacity="0.05"/>
      <rect x="10" y="10" width="10" height="10" fill="#f59e0b" opacity="0.05"/>
    </pattern>

    <!-- subtle grids -->
    <pattern id="grid1" width="80" height="80" patternUnits="userSpaceOnUse">
      <path d="M 80 0 L 0 0 0 80" fill="none" stroke="#000" stroke-opacity="0.05" stroke-width="1"/>
    </pattern>
    <pattern id="grid2" width="100" height="100" patternUnits="userSpaceOnUse">
      <path d="M 100 0 L 0 0 0 100" fill="none" stroke="#000" stroke-opacity="0.03" stroke-width="1"/>
    </pattern>

    <!-- gradients -->
    <linearGradient id="grad1" x1="0%" y1="0%" x2="100%" y2="100%">
      <stop offset="0%" stop-color="#fbbf24"/>
      <stop offset="50%" stop-color="#f43f5e"/>
      <stop offset="100%" stop-color="#fbcfe8"/>
    </linearGradient>

    <linearGradient id="grad2" x1="0%" y1="100%" x2="100%" y2="0%">
      <stop offset="0%" stop-color="#6366f1"/>
      <stop offset="50%" stop-color="#7c3aed"/>
      <stop offset="100%" stop-color="#a78bfa"/>
    </linearGradient>

    <linearGradient id="grad3" x1="0%" y1="0%" x2="100%" y2="0%">
      <stop offset="0%" stop-color="#34d399"/>
      <stop offset="50%" stop-color="#6ee7b7"/>
      <stop offset="100%" stop-color="#10b981"/>
    </linearGradient>

    <linearGradient id="grad4" x1="100%" y1="0%" x2="0%" y2="100%">
      <stop offset="0%" stop-color="#fde68a"/>
      <stop offset="50%" stop-color="#fcd34d"/>
      <stop offset="100%" stop-color="#fbbf24"/>
    </linearGradient>
  </defs>

  <!-- background -->
  <rect width="100%" height="100%" fill="#fffaf0"/>
  <rect width="100%" height="100%" fill="url(#grid1)"/>
  <rect width="100%" height="100%" fill="url(#grid2)"/>

  <!-- layered shapes -->
  <circle cx="1800" cy="1200" r="800" fill="url(#grad1)" filter="url(#softShadow)" opacity="0.95"/>
  <ellipse cx="1400" cy="900" rx="600" ry="400" fill="url(#grad2)" filter="url(#softShadow)" opacity="0.85"/>
  <circle cx="1600" cy="1300" r="500" fill="url(#mesh)" filter="url(#softShadow)" opacity="0.7"/>
  <ellipse cx="1200" cy="1100" rx="450" ry="300" fill="url(#grad3)" filter="url(#softShadow)" opacity="0.9"/>
  <circle cx="1500" cy="1350" r="350" fill="url(#grad4)" filter="url(#softShadow)" opacity="0.9"/>

  <!-- additional floating circles for depth -->
  <circle cx="1000" cy="800" r="250" fill="url(#grad2)" filter="url(#softShadow)" opacity="0.7"/>
  <circle cx="800" cy="1000" r="180" fill="url(#grad3)" filter="url(#softShadow)" opacity="0.6"/>
  <ellipse cx="1200" cy="600" rx="300" ry="200" fill="url(#grad1)" filter="url(#softShadow)" opacity="0.75"/>
</svg>
